<svg width="130" height="130" viewBox="0 0 130 130" fill="none" xmlns="http://www.w3.org/2000/svg">
<path d="M32.5065 21.4746C32.821 21.0972 33.1356 20.7197 33.4501 20.3423C34.205 19.5874 34.9599 19.0212 35.8407 18.7695C36.3439 18.6437 36.9101 18.5808 37.4763 18.5808C37.6021 18.5808 37.7908 18.5808 37.9166 18.5808C38.1054 18.5808 38.2941 18.6437 38.4828 18.6437C38.6715 18.6437 38.8603 18.7066 39.049 18.7066C39.1119 18.7066 39.2377 18.7695 39.3006 18.7695C39.6152 18.8325 39.9297 18.8954 40.2442 18.9583C39.9926 18.7066 39.741 18.5179 39.4893 18.3292C39.4264 18.2663 39.3635 18.2034 39.3006 18.1405C39.3006 18.1405 39.2377 18.1405 39.2377 18.0775C38.9232 17.8888 38.5457 17.7001 38.1683 17.5743C37.9795 17.5114 37.7908 17.4485 37.6021 17.3856C37.4134 17.3226 37.1617 17.3226 36.973 17.3226C37.1617 17.1339 37.3505 16.9452 37.5392 16.7565C37.6021 16.6936 37.665 16.6307 37.7279 16.6307C38.0424 16.379 38.357 16.1903 38.6715 16.0645C38.6715 16.0645 38.6715 16.0645 38.7344 16.0645C38.8603 16.0016 38.9232 16.0016 39.049 16.0016C39.1119 16.0016 39.1119 16.0016 39.1748 16.0016C39.4264 15.9387 39.6781 15.9387 39.9297 15.9387C40.1813 15.9387 40.433 15.9387 40.6846 16.0016C40.8104 16.0016 40.9362 16.0645 41.0621 16.0645H41.125C41.2508 16.0645 41.3766 16.1274 41.5024 16.1274C41.754 16.1903 41.9428 16.1903 42.1944 16.2532C42.2573 16.2532 42.3831 16.2532 42.446 16.2532C42.2573 16.0016 42.0057 15.7499 41.754 15.5612C41.754 15.5612 41.754 15.5612 41.6911 15.5612C41.5024 15.4354 41.2508 15.3096 41.0621 15.1838C40.9991 15.1209 40.9362 15.1209 40.8733 15.0579C40.6846 14.995 40.433 14.8692 40.1813 14.8063H40.1184C39.8039 14.7434 39.5523 14.6805 39.2377 14.7434C39.049 14.7434 38.9232 14.7434 38.7344 14.8063C38.6086 14.8063 38.5457 14.8692 38.4199 14.8692C37.9795 14.995 37.6021 15.2467 37.2875 15.5612C37.1617 15.687 37.0359 15.8758 36.9101 16.0016C36.9101 16.0016 36.9101 16.0016 36.9101 16.0645C36.6585 16.5048 36.5326 17.0081 36.4697 17.4485C36.3439 17.4485 36.281 17.4485 36.1552 17.5114C36.0923 17.5114 35.9665 17.5114 35.9036 17.5743C35.7777 17.5743 35.7148 17.6372 35.589 17.6372C34.9599 17.8259 34.3938 18.1405 33.9534 18.5808C33.7647 18.7695 33.576 18.9583 33.3872 19.2099C32.7581 19.7761 32.5065 20.6568 32.5065 21.4746Z" fill="white"/>
<path d="M52.763 10.151C52.9517 10.151 53.0776 10.151 53.2663 10.2139C53.7696 10.2768 54.2728 10.4027 54.7761 10.6543C55.0906 10.7801 55.4052 10.9688 55.7826 11.1576C56.0972 11.3463 56.4746 11.535 56.8521 11.7237C56.7892 11.5979 56.7262 11.535 56.6633 11.4092C56.5375 11.1576 56.4117 10.9688 56.2859 10.7801C56.2859 10.7172 56.223 10.7172 56.223 10.6543C56.1601 10.5914 56.0972 10.5285 56.0343 10.4656C55.7826 10.2139 55.5939 9.96231 55.3423 9.77358C55.0277 9.52195 54.6503 9.27031 54.2099 9.1445C54.3986 9.01868 54.5245 8.95577 54.7132 8.89286C54.839 8.82995 54.9648 8.76705 55.0906 8.70414C55.2164 8.64123 55.2794 8.64123 55.4052 8.57832C55.7826 8.4525 56.1601 8.4525 56.4746 8.4525C56.7892 8.4525 57.1037 8.57832 57.4182 8.70414C57.5441 8.76705 57.7328 8.82995 57.8586 8.89286C57.9215 8.89286 57.9215 8.89286 57.9844 8.95577C58.0473 9.01868 58.1102 9.01868 58.1731 9.08159C58.3619 9.20741 58.5506 9.27031 58.8022 9.39613C58.8651 9.45904 58.9909 9.45904 59.0539 9.52195C59.2426 9.64776 59.4313 9.71067 59.6829 9.83649C59.5571 9.52195 59.4313 9.27031 59.3055 9.01868C59.3055 9.01868 59.3055 8.95577 59.2426 8.95577C59.1797 8.89286 59.1797 8.82995 59.1168 8.76705C59.0539 8.64123 58.928 8.51541 58.8022 8.3896C58.7393 8.32669 58.6764 8.20087 58.5506 8.13796C58.0473 7.6976 57.3553 7.32015 56.6004 7.19434C56.3488 7.19434 56.0972 7.19434 55.7826 7.25724C55.2794 7.32015 54.7761 7.57179 54.4615 7.88633C54.147 8.20087 53.8954 8.51541 53.7066 8.89286C53.7066 8.95577 53.6437 9.01868 53.6437 9.08159C53.3921 9.01868 53.0776 8.95577 52.763 8.95577C52.2597 8.95577 51.8194 9.01868 51.379 9.1445C50.9387 9.27031 50.5612 9.52195 50.1838 9.77358C49.8063 10.0252 49.4918 10.4027 49.2401 10.7172C49.1143 10.9059 48.9885 11.0317 48.9256 11.2205C48.8627 11.4092 48.7369 11.5979 48.674 11.7866C49.7434 11.0947 50.8129 10.5285 51.8194 10.3398C52.1968 10.151 52.5114 10.151 52.763 10.151Z" fill="white"/>
<path d="M60.8782 21.7262C61.3815 21.4117 61.8847 21.0971 62.388 20.9084C62.5138 20.8455 62.6396 20.7826 62.7655 20.7197C63.4574 20.4051 64.2123 20.2164 64.9043 20.2164C65.0931 20.2164 65.2818 20.2164 65.4705 20.2164C66.3512 20.2793 67.2949 20.4681 68.1756 20.9084C68.3643 20.9713 68.553 21.0971 68.7418 21.16C68.9934 21.2859 69.3079 21.4117 69.5596 21.5375C69.9999 21.7891 70.5032 22.1037 71.0065 22.2924C70.9435 22.1037 70.8177 21.9149 70.6919 21.7262C70.5032 21.4117 70.3145 21.16 70.1257 20.8455C69.937 20.6568 69.7483 20.4051 69.5596 20.2164C69.3708 20.0277 69.1192 19.7761 68.9305 19.6502C68.9305 19.6502 68.8676 19.6502 68.8676 19.5873C68.4272 19.2728 67.9239 18.9582 67.3578 18.7695C67.7981 18.5179 68.1756 18.2663 68.553 18.1404C68.6159 18.1404 68.6788 18.0775 68.8047 18.0775C69.3708 17.8888 69.937 17.8259 70.5032 17.8888C70.5661 17.8888 70.629 17.8888 70.6919 17.8888C71.2581 17.9517 71.8872 18.2033 72.5792 18.455C72.8308 18.5808 73.1453 18.7066 73.397 18.8324C73.4599 18.8953 73.5857 18.8953 73.6486 18.9582C74.0261 19.147 74.4035 19.3357 74.8439 19.5244C74.8439 19.4615 74.781 19.3986 74.781 19.3357C74.7181 19.2099 74.6551 19.0212 74.5922 18.8953C74.4664 18.7066 74.4035 18.5179 74.2777 18.2663C74.0261 17.8888 73.7115 17.5743 73.397 17.1968C72.705 16.5677 71.8243 16.0645 70.7548 15.9386C70.1257 15.8757 69.4967 15.9386 68.9305 16.1903C68.553 16.379 68.1756 16.5677 67.861 16.8194C67.6094 17.071 67.3578 17.3226 67.169 17.5743C66.9803 17.8259 66.8545 18.1404 66.7287 18.455C66.3512 18.3292 65.9738 18.2663 65.5334 18.2663C64.2753 18.2033 63.0171 18.6437 62.0105 19.3986C61.6331 19.6502 61.3186 19.9648 61.0669 20.2793C60.6266 20.7826 60.312 21.2859 60.0604 21.9149C59.9975 21.9779 59.9975 22.1037 59.9346 22.1666C60.1862 22.0408 60.3749 21.852 60.6266 21.7262C60.7524 21.7891 60.8153 21.7262 60.8782 21.7262Z" fill="white"/>
<path d="M52.7001 19.084C52.7001 19.084 52.0081 13.7368 47.3529 17.5113C47.3529 17.5113 51.5048 15.8128 52.7001 19.084Z" fill="white"/>
<path d="M82.5187 19.084C82.5187 19.084 81.8267 13.7368 77.1715 17.5113C77.2344 17.5113 81.3234 15.8128 82.5187 19.084Z" fill="white"/>
<path d="M70.1257 10.3398C70.1257 10.3398 69.4337 4.99262 64.7785 8.76713C64.8414 8.70422 68.9305 7.00569 70.1257 10.3398Z" fill="white"/>
<path d="M45.0882 11.7238C45.0882 11.7238 44.3333 6.69111 40.4959 10.0253C40.4959 10.0253 43.83 8.51545 45.0882 11.7238Z" fill="white"/>
<path d="M112.652 82.8732V79.4132C112.652 77.0856 112.526 74.758 112.463 72.4304C112.274 67.7752 111.96 63.1829 111.394 58.5276C111.268 57.3953 111.079 56.2 110.953 55.0677C110.765 53.9353 110.576 52.7401 110.324 51.6077C109.884 49.343 109.318 47.0783 108.437 44.8136C108.311 44.3103 108.122 43.87 107.934 43.4296C107.745 42.9893 107.43 42.5489 107.179 42.1085C106.613 41.2907 105.921 40.5358 105.04 39.9067C104.222 39.3406 103.216 38.8373 102.209 38.6486C101.706 38.5228 101.202 38.4599 100.699 38.3969C100.259 38.334 99.7556 38.3969 99.3152 38.3969C95.6666 38.1453 92.0179 37.8937 88.3063 37.642C88.1805 37.642 87.9917 37.5791 87.8659 37.5162C87.7401 37.4533 87.5514 37.3904 87.4256 37.2646C87.2997 37.2017 87.1739 37.0759 87.111 37.013C87.111 36.8871 87.0481 36.6984 87.0481 36.6355C86.8594 34.4337 86.7336 32.169 86.6077 29.9672C86.7965 30.0301 86.9852 30.0301 87.2368 30.093C87.9288 30.2189 88.6837 30.2189 89.5015 30.093C90.2564 29.9672 91.2001 29.6527 91.8291 28.9607C92.0179 28.772 92.1437 28.5832 92.2695 28.3945C92.3953 28.2058 92.5211 28.0171 92.584 27.8283C92.647 27.6396 92.7728 27.388 92.8357 27.1992L92.9615 26.6331C93.0244 26.1927 93.0244 25.8782 93.0244 25.5007C93.0244 25.1233 92.9615 24.7458 92.9615 24.4313C92.8986 24.1167 92.8986 23.7393 92.8357 23.4247C92.7728 23.1102 92.7099 22.7327 92.584 22.3553C92.3324 21.6633 92.0808 20.9084 91.3259 20.1535C91.0113 19.9019 90.6339 19.6502 90.1306 19.5244C90.1306 19.2728 90.1306 19.0212 90.1306 18.7066C90.1306 17.8888 90.0677 17.1339 89.9419 16.3161C89.6903 14.7434 89.1241 13.1078 87.9917 11.7867C86.9223 10.4656 85.2867 9.52198 83.714 9.14453C82.3929 8.82999 81.0089 8.70417 79.6878 8.82999C79.2475 8.138 78.8071 7.50891 78.3038 6.81692C77.6747 5.99911 76.9198 5.1813 76.1649 4.4264C74.6551 2.97951 72.8308 1.72134 70.7548 0.966438C69.7483 0.588987 68.6788 0.337354 67.6094 0.274445C66.54 0.211537 65.4705 0.274445 64.4011 0.46317C62.388 0.903529 60.5637 1.78425 58.8651 2.9166C57.3553 2.03588 55.7826 1.4068 54.0841 0.966438C52.3227 0.526079 50.4983 0.337354 48.674 0.400262C46.8496 0.46317 44.9624 0.840621 43.2638 1.46971C42.3831 1.72134 41.5653 2.22461 40.7475 2.60206C40.1813 2.9166 39.6152 3.23114 39.049 3.60859C38.1683 3.16823 37.2246 2.79078 36.281 2.53915C35.0858 2.22461 33.7647 2.09879 32.4436 2.28751C31.1225 2.47624 29.8014 3.16823 28.8578 4.11186C28.3546 4.55222 27.9771 5.11839 27.5997 5.68457C27.348 6.06202 27.2222 6.43947 27.0335 6.81692C26.7818 6.87983 26.5931 6.94274 26.3415 7.06855C25.9011 7.25728 25.4608 7.44601 25.0833 7.69764C24.2655 8.20091 23.5735 8.95581 23.0702 9.77362C22.567 10.6543 22.3153 11.598 22.3153 12.5416C22.2524 12.9819 22.3153 13.4223 22.3783 13.8627C22.3783 14.0514 22.4412 14.2401 22.5041 14.4288C21.875 14.6805 21.3088 14.995 20.8055 15.3096C20.0506 15.7499 19.2957 16.379 18.7296 17.0081C17.4714 18.3292 16.6536 20.0906 16.4649 21.852C16.2132 23.6764 16.5907 25.4378 17.0939 27.0734C17.6601 28.709 18.415 30.2189 19.2957 31.7287H19.2328L19.2957 31.7916C20.2394 32.7352 21.0572 33.9304 21.6863 35.0628C22.3783 36.2581 22.8815 37.5162 23.1961 38.8373C23.5106 40.1584 23.6364 41.4795 23.5106 42.8005C23.4477 44.1216 23.0073 45.3798 22.567 46.6379V46.7009V46.7638C22.3153 47.6445 22.1266 48.5252 22.0637 49.4059C22.0008 50.3495 22.0008 51.2932 22.2524 52.2997C22.3783 52.803 22.6299 53.3062 22.9444 53.8095C23.3219 54.2499 23.8251 54.6902 24.3284 54.9419C24.8317 55.1935 25.3979 55.2564 25.9011 55.3193C25.8382 60.5407 25.7753 65.825 25.6495 71.0464C25.4608 78.7212 25.272 86.3961 24.8946 94.0709C24.7059 97.9083 24.5171 101.746 24.2026 105.52C24.0139 107.407 23.8881 109.358 23.6364 111.182C23.5106 112.126 23.3848 113.069 23.259 113.95L22.6928 116.592C22.567 116.97 22.4412 117.221 22.3153 117.599C22.1895 117.976 22.1266 118.354 22.0637 118.794C21.9379 119.612 21.9379 120.43 22.1895 121.31C22.567 123.009 23.8251 124.393 25.1462 125.273C25.7753 125.714 26.5302 126.028 27.2222 126.343C27.9142 126.532 28.6062 126.846 29.2982 126.972C30.6193 127.287 31.9403 127.538 33.2614 127.79C38.6086 128.733 43.9558 129.425 49.3031 129.74C54.7132 130.055 60.0604 130.117 65.4705 129.74C70.8177 129.425 76.1649 128.671 81.4493 127.601C81.9525 127.538 82.3929 127.475 82.8961 127.349C83.3994 127.224 83.9027 127.098 84.343 126.909C85.2867 126.532 86.2932 126.028 87.111 125.211C87.9288 124.456 88.5579 123.386 88.7466 122.254C88.9354 121.688 88.9354 121.184 88.9354 120.618C88.9354 120.052 88.8095 119.549 88.8095 119.046V118.983C88.6208 118.165 88.4321 117.347 88.2434 116.529C88.0546 115.711 87.9288 114.894 87.803 114.076C87.6772 113.258 87.6143 112.44 87.5514 111.622C87.4885 110.993 87.4885 110.364 87.5514 109.798L105.103 98.7261C105.732 98.4116 106.172 98.097 106.676 97.7196C107.179 97.3421 107.619 96.9018 108.06 96.4614C108.94 95.5807 109.695 94.5742 110.261 93.4418C111.519 91.3029 112.211 88.8495 112.463 86.459C112.526 85.8299 112.526 85.2637 112.589 84.6346C112.715 84.0685 112.652 83.4394 112.652 82.8732ZM86.9852 53.1175C86.7336 51.5448 86.6707 48.9656 87.2997 48.2736C87.3626 48.2107 87.4256 48.1477 87.4885 48.1477H98.4345C98.6862 48.2107 99.4411 48.7768 99.8185 50.9157C99.8814 51.1674 103.845 73.2482 101.517 84.8234L101.454 85.075L101.517 85.2637C101.517 85.3895 101.894 87.5913 98.3716 89.6044L88.8724 94.5113C88.2434 94.8258 86.9852 95.0774 86.419 94.8258C86.2932 94.7629 86.1674 94.7 86.1045 94.3854L86.9852 53.1175V53.1175ZM78.9329 25.4378L56.3488 25.312L78.9329 25.4378ZM35.6519 4.92967C36.5956 5.1813 37.6021 5.62166 38.4199 6.06202L39.1748 6.43947L39.8039 5.99911C40.4959 5.49584 41.125 4.99258 41.817 4.55222C42.5719 4.17477 43.2638 3.6715 44.0187 3.35696C45.5285 2.60206 47.1642 2.22461 48.7998 1.97297C50.4354 1.78425 52.1968 1.78425 53.8325 2.09879C55.531 2.41333 57.1666 2.9166 58.6764 3.6715L58.928 3.79732L59.0539 3.73441C60.7524 2.72787 62.6396 1.97297 64.5898 1.65843C66.4771 1.4068 68.4272 1.65843 70.1886 2.47624C71.9501 3.23114 73.4599 4.48931 74.781 5.87329C76.102 7.25728 77.2344 8.95581 78.0522 10.5914L78.3667 11.2834H79.2475C79.4991 11.2834 79.6878 11.2205 79.9394 11.2205C85.6641 12.4787 86.1674 16.1274 86.1674 16.1274C85.3496 14.6176 83.651 14.5547 83.5881 14.5547C87.9288 17.8888 86.1674 24.4313 86.1674 24.4313L79.8765 25.2491L41.5653 23.4247L55.2794 22.2295C48.4223 22.4811 31.6887 22.2295 31.6887 22.2295C30.5563 20.6568 32.821 16.4419 32.821 16.4419C30.116 17.071 28.4804 18.5808 28.4804 18.5808C26.2786 14.6176 30.3047 12.4787 30.3047 12.4787C28.5433 7.88636 32.821 4.67803 32.821 4.67803C33.7018 4.55222 34.6454 4.67803 35.6519 4.92967ZM86.419 121.688C86.2932 122.38 85.9787 122.946 85.4125 123.386C84.9092 123.827 84.2801 124.204 83.5252 124.519C82.8332 124.77 81.9525 124.959 81.2605 125.022H81.1347H81.0089C75.8504 126.028 70.5661 126.72 65.2818 127.035C59.9975 127.349 54.7132 127.287 49.4289 126.972C44.1446 126.657 38.8603 125.965 33.7018 125.022C32.3807 124.77 31.1225 124.519 29.8644 124.204C29.2353 124.078 28.732 123.827 28.1029 123.701C27.5997 123.449 27.0335 123.26 26.5931 122.946C25.6495 122.317 25.0204 121.562 24.8317 120.681C24.7059 120.241 24.7059 119.738 24.7688 119.234C24.8317 118.983 24.8946 118.731 24.9575 118.479C25.0204 118.228 25.1462 117.913 25.2091 117.787L25.272 117.599V117.473L25.9011 114.516C26.0898 113.51 26.1528 112.566 26.3415 111.622C26.656 109.672 26.7818 107.785 26.9706 105.835C27.2851 101.997 27.5367 98.097 27.7255 94.2596C28.1029 86.5219 28.2916 78.8471 28.4175 71.1093C28.4175 68.8446 28.4804 66.5799 28.4804 64.3152C28.4804 62.5538 28.5433 60.7923 28.5433 59.0938C28.5433 57.4582 28.5433 55.7597 28.6062 54.0611C28.6062 53.9982 28.6062 53.8724 28.6062 53.8095C28.6062 51.8593 28.6062 49.9721 28.6062 48.0219C28.6062 45.883 28.6062 43.7442 28.6062 41.6053C28.6062 41.1649 28.6062 40.6616 28.6062 40.2213C28.6062 39.4664 28.6062 38.7744 28.6062 38.0195C28.6062 37.5162 28.6062 37.013 28.6062 36.5097V35.0628V34.4966C28.6062 34.4337 28.6062 34.4966 28.6062 34.4337C28.6062 34.4337 28.5433 34.4337 28.5433 34.3708H28.4804H28.4175C28.4175 34.3708 28.4175 34.3708 28.4804 34.3079C28.5433 34.1821 28.5433 34.1192 28.6062 33.9934C28.6062 33.8675 28.6691 33.7417 28.6691 33.6788V33.6159V33.4901V33.3014V32.9239V32.169V30.7221L28.6062 27.8283V27.7025L29.1095 27.7654L30.8709 27.4509L32.5065 27.2622C33.6389 27.1363 34.7712 27.0734 35.9036 26.9476C38.1683 26.8218 40.433 26.696 42.6977 26.6331C47.2271 26.5073 51.7565 26.5073 56.2859 26.5702L69.8741 26.8218C74.4035 26.9476 78.87 27.1363 83.3994 27.2622C83.5881 27.3251 83.8398 27.3251 83.9656 27.388C84.1543 27.4509 84.2801 27.5767 84.406 27.6396C84.4689 27.7025 84.4689 27.7654 84.5318 27.7654C84.4689 27.8283 84.4689 27.8912 84.406 28.0171C84.2801 28.4574 84.343 28.8349 84.5947 29.1494C84.6576 31.8545 84.6576 34.5595 84.6576 37.2646V37.5162V37.7679L85.1608 46.9525C83.9027 48.7768 84.343 52.3626 84.4689 53.3691L83.5881 94.7629L83.651 94.8887C83.651 94.8887 83.2107 100.488 85.1608 105.898C85.2238 106.086 85.2867 106.275 85.3496 106.401C85.4754 106.904 85.6012 107.407 85.727 107.911H85.6641L85.1608 108.225L85.0979 108.791C85.035 109.106 85.035 109.358 85.035 109.672C85.035 109.735 85.035 109.735 85.035 109.798C85.035 110.05 85.035 110.301 85.035 110.553V110.616C85.035 110.93 85.035 111.308 85.035 111.622C85.0979 112.503 85.1608 113.447 85.2867 114.327C85.4125 115.208 85.5383 116.089 85.727 116.97C85.9158 117.787 86.0416 118.668 86.2932 119.486C86.2932 119.863 86.419 120.241 86.3561 120.618C86.5448 120.996 86.5448 121.373 86.419 121.688ZM110.576 84.5717C110.513 85.1379 110.513 85.6412 110.45 86.2074C110.45 86.3961 110.387 86.5848 110.387 86.7735L109.758 77.2743C110.513 91.7433 105.166 95.0145 105.166 95.0145L86.5448 105.52L85.727 104.01C88.6208 102.438 91.5775 100.928 94.5342 99.4181L99.1265 97.0276L101.454 95.8323C102.209 95.4549 103.027 95.0145 103.719 94.4483C105.103 93.3789 106.361 91.9949 107.179 90.4851C107.997 88.9124 108.437 87.2139 108.563 85.4524C108.689 83.7539 108.752 81.9925 108.752 80.2939C108.752 78.5954 108.752 76.834 108.563 75.1355C108.752 76.834 108.689 78.5954 108.689 80.2939C108.626 81.9925 108.5 83.7539 108.311 85.4524C107.997 88.9124 105.984 91.9949 103.216 93.7564C102.524 94.1967 101.769 94.5742 100.951 94.8887L98.5603 95.8952L93.7793 97.8454C91.0113 98.9778 88.2434 100.047 85.4754 101.117V100.488C88.7466 99.1036 102.712 92.4353 102.712 92.4353C106.864 89.4157 106.801 81.6779 106.487 77.9034L107.368 85.5154C108.877 75.45 105.04 51.2932 105.04 51.2932L105.606 64.5039L103.404 51.0415C103.341 49.2801 103.027 47.4558 102.02 45.946C101.517 45.1911 100.825 44.562 99.9443 44.1216C99.8185 44.0587 99.6927 43.9958 99.504 43.9329C99.4411 43.9329 99.3782 43.87 99.3782 43.87C99.2523 43.8071 99.1265 43.8071 99.0007 43.8071C98.9378 43.8071 98.9378 43.8071 98.8749 43.8071H101.391C104.285 43.87 106.424 50.8528 106.424 50.8528C105.669 41.6682 100.07 42.1085 100.07 42.1085L87.4885 41.4165C87.4885 40.9133 87.4885 40.4729 87.4256 39.9067C87.5514 39.9697 87.6772 39.9697 87.8659 40.0326H87.9288H87.9917C91.7033 40.2213 95.4149 40.41 99.1265 40.5987H99.2523C99.6298 40.5987 100.07 40.5358 100.448 40.5987C100.825 40.6616 101.265 40.6616 101.643 40.7875C102.398 40.9133 103.09 41.2907 103.782 41.7311C104.411 42.1715 104.977 42.7376 105.417 43.3667C105.858 43.9958 106.235 44.8136 106.424 45.4427V45.5056V45.5685C107.997 49.6576 108.752 54.3128 109.255 58.8422C109.758 63.3716 110.073 68.0268 110.261 72.6191C110.324 74.9467 110.387 77.2114 110.45 79.539V82.999C110.576 83.4394 110.639 84.0056 110.576 84.5717Z" fill="white"/>
<path d="M31.0596 28.8348C31.0596 28.8348 58.1102 26.9476 82.1412 28.8348C83.9027 28.9606 81.5122 98.4115 80.8202 109.546C80.6943 111.245 78.4925 111.685 78.4925 111.685C78.4925 111.685 80.1911 111.308 81.1347 111.874C82.0783 112.44 83.2736 116.907 82.6445 118.794C82.0154 120.681 80.4427 123.386 73.9631 123.889C67.5465 124.456 41.5024 124.519 36.9101 122.883C32.3178 121.247 29.0465 120.178 29.1094 117.599C29.1724 115.019 28.6062 111.434 29.4869 110.679C30.3676 109.924 30.3676 110.553 30.3676 110.553C30.3676 110.553 28.04 109.798 28.2287 108.603C28.4804 107.407 29.7385 98.6002 30.3676 96.0839C30.9967 93.5676 32.0661 52.6142 31.8145 46.6379C31.5629 40.6616 31.0596 28.8348 31.0596 28.8348Z" fill="white"/>
</svg>
