<svg width="130" height="130" viewBox="0 0 130 130" fill="none" xmlns="http://www.w3.org/2000/svg">
<g clip-path="url(#clip0_151_74)">
<path d="M104.809 59.9531C104.809 61.1299 104.882 62.3066 104.662 63.4098C104.441 65.1014 104.956 64.9543 105.912 64.3659C111.501 61.2034 116.944 61.5711 122.166 65.3955C128.196 69.8819 131.138 78.5603 129.594 87.0181C128.123 95.0346 122.313 101.507 115.546 102.536C108.413 103.64 101.72 99.4474 98.4102 91.6515C98.1896 91.0631 97.969 90.5483 97.6012 89.7393C90.1731 103.419 80.0972 112.244 67.006 115.922C62.0049 117.393 57.0038 117.393 51.9291 117.172C51.782 117.098 51.5614 116.951 51.4143 116.951C46.0454 116.289 40.8972 114.451 36.0431 111.656C27.4382 106.728 20.5984 99.2268 15.5237 89.3716C11.4052 81.2815 9.05169 72.456 8.61041 62.895H8.53686C15.0089 64.7336 21.6281 65.0278 28.1737 65.6897C32.2187 66.131 36.3373 66.2781 40.3823 66.3516C49.2079 66.4987 58.0334 66.6458 66.9325 66.2045C73.6987 65.8368 80.465 65.5426 87.1577 64.7336C90.6143 64.2923 93.9975 63.8511 97.3806 62.9685C97.4541 62.8214 97.5277 62.7479 97.6748 62.6008C100.175 62.6008 102.529 61.6447 104.809 59.9531ZM113.193 96.7262C119.959 96.7997 125.034 90.3277 124.887 82.6053C124.813 74.2211 119.886 68.4109 112.899 68.558C106.28 68.6316 101.72 74.5888 101.573 82.4582C101.499 90.3277 106.721 96.7262 113.193 96.7262Z" fill="white"/>
<path d="M104.809 59.9531C102.602 61.6447 100.175 62.6008 97.6012 62.7479C97.8219 61.7918 97.2335 61.5711 96.6451 61.3505C95.3949 60.7621 94.071 60.5415 92.6736 60.3208C85.1719 58.997 77.6702 58.5557 70.095 58.3351C60.6075 57.9674 51.0465 57.8203 41.4855 58.1145C32.7335 58.4086 23.9816 58.7764 15.3031 59.9531C13.1703 60.2473 10.9639 60.5415 8.90459 61.424C8.16913 61.7182 7.43367 62.086 8.46332 63.1156H8.53686C8.09558 63.0421 7.72785 63.0421 7.28658 62.9685C4.85955 62.5272 2.65317 61.424 0.446783 60.3208C0.00550624 58.9235 0.814518 58.3351 1.62353 57.8203C4.05055 56.2758 6.77175 55.761 9.49296 55.2462C13.7586 54.4372 18.0979 53.8488 22.4371 53.4075C27.5118 52.8927 32.66 52.5985 37.8082 52.3043C47.075 51.7895 56.2683 52.0837 65.4616 52.0837C69.286 52.0837 73.1104 52.3043 76.9348 52.7456C81.6417 53.2604 86.3487 53.5546 91.0556 54.3636C94.7329 55.0255 98.4838 55.4668 102.014 56.9377C103.191 57.379 104.882 57.5996 104.809 59.9531Z" fill="#8E8E8E"/>
<path d="M0.373245 60.2473C2.57963 61.4241 4.78602 62.4537 7.21304 62.895C7.65431 62.9685 8.02204 63.0421 8.46332 63.0421C8.9046 72.6031 11.2581 81.4286 15.3767 89.5187C20.3778 99.3739 27.2176 106.802 35.896 111.803C40.7501 114.598 45.8983 116.51 51.2672 117.098C51.4143 117.098 51.6349 117.246 51.782 117.319C47.2221 117.613 42.6623 117.393 38.176 116.069C18.0243 110.7 2.72672 89.9599 0.667425 65.2484C0.593879 63.5569 0.520338 61.9389 0.373245 60.2473Z" fill="#CDCDCD"/>
<path d="M8.46332 63.1157C7.43367 62.086 8.24268 61.7183 8.90459 61.4241C10.9639 60.5415 13.0967 60.2474 15.3031 59.9532C23.9816 58.7764 32.7336 58.4822 41.4855 58.1145C51.0465 57.7468 60.534 57.9674 70.095 58.3352C77.6702 58.6293 85.1719 59.0706 92.6736 60.3209C93.9975 60.5415 95.3213 60.8357 96.6451 61.3505C97.16 61.5712 97.8219 61.7918 97.6012 62.7479C97.5277 62.895 97.4541 62.9686 97.3071 63.1157C93.9239 63.9982 90.5408 64.4395 87.0841 64.8808C80.3914 65.6898 73.6252 66.0575 66.859 66.3517C58.0334 66.793 49.1343 66.6459 40.3088 66.4988C36.2638 66.4252 32.1452 66.2781 28.1001 65.8369C21.5545 65.2485 14.9354 64.9543 8.46332 63.1157Z" fill="#CDCDCD"/>
<path d="M113.193 96.7262C106.721 96.7262 101.499 90.3277 101.646 82.3847C101.793 74.5888 106.353 68.6316 112.972 68.4845C119.886 68.4109 124.813 74.1475 124.96 82.5318C125.034 90.3277 119.886 96.8733 113.193 96.7262ZM113.193 94.005C118.488 94.005 122.68 88.9303 122.68 82.6053C122.68 76.4274 118.488 71.3528 113.414 71.2792C108.118 71.2057 103.926 76.2804 103.853 82.6053C103.853 88.8567 107.971 93.9314 113.193 94.005Z" fill="#8E8E8E"/>
<path d="M97.3071 63.1156C97.3806 62.9685 97.4541 62.895 97.6012 62.7479C97.4541 62.895 97.3806 62.9685 97.3071 63.1156Z" fill="black"/>
<g filter="url(#filter0_d_151_74)">
<path d="M42.2703 45.9864C45.6716 51.4955 43.2826 59.6243 41.663 63C42.574 56.5186 38.0187 55.7084 34.3745 50.0372C30.7303 44.366 35.5893 26.5422 34.6782 30.5931C33.7672 34.6439 38.0187 39.0999 42.2703 45.9864Z" fill="#D9D9D9"/>
</g>
<g filter="url(#filter1_d_151_74)">
<path d="M48.9876 30.426C43.1127 41.9452 47.2391 58.9417 50.0367 66C48.4631 52.448 56.3313 50.754 62.6258 38.896C68.9204 27.038 60.5276 -10.23 62.1013 -1.75997C63.6749 6.71003 56.3313 16.027 48.9876 30.426Z" fill="#D9D9D9"/>
</g>
<g filter="url(#filter2_d_151_74)">
<path d="M67.0441 34.2218C63.0245 42.569 65.8478 54.8853 67.7619 60C66.6852 50.1797 72.0688 48.9522 76.3756 40.3594C80.6824 31.7667 74.94 4.76089 76.0167 10.8986C77.0934 17.0363 72.0688 23.7877 67.0441 34.2218Z" fill="#D9D9D9"/>
</g>
</g>
<defs>
<filter id="filter0_d_151_74" x="29" y="30" width="19" height="41" filterUnits="userSpaceOnUse" color-interpolation-filters="sRGB">
<feFlood flood-opacity="0" result="BackgroundImageFix"/>
<feColorMatrix in="SourceAlpha" type="matrix" values="0 0 0 0 0 0 0 0 0 0 0 0 0 0 0 0 0 0 127 0" result="hardAlpha"/>
<feOffset dy="4"/>
<feGaussianBlur stdDeviation="2"/>
<feComposite in2="hardAlpha" operator="out"/>
<feColorMatrix type="matrix" values="0 0 0 0 0 0 0 0 0 0 0 0 0 0 0 0 0 0 0.25 0"/>
<feBlend mode="normal" in2="BackgroundImageFix" result="effect1_dropShadow_151_74"/>
<feBlend mode="normal" in="SourceGraphic" in2="effect1_dropShadow_151_74" result="shape"/>
</filter>
<filter id="filter1_d_151_74" x="42" y="-3" width="27" height="77" filterUnits="userSpaceOnUse" color-interpolation-filters="sRGB">
<feFlood flood-opacity="0" result="BackgroundImageFix"/>
<feColorMatrix in="SourceAlpha" type="matrix" values="0 0 0 0 0 0 0 0 0 0 0 0 0 0 0 0 0 0 127 0" result="hardAlpha"/>
<feOffset dy="4"/>
<feGaussianBlur stdDeviation="2"/>
<feComposite in2="hardAlpha" operator="out"/>
<feColorMatrix type="matrix" values="0 0 0 0 0 0 0 0 0 0 0 0 0 0 0 0 0 0 0.25 0"/>
<feBlend mode="normal" in2="BackgroundImageFix" result="effect1_dropShadow_151_74"/>
<feBlend mode="normal" in="SourceGraphic" in2="effect1_dropShadow_151_74" result="shape"/>
</filter>
<filter id="filter2_d_151_74" x="61" y="10" width="21" height="58" filterUnits="userSpaceOnUse" color-interpolation-filters="sRGB">
<feFlood flood-opacity="0" result="BackgroundImageFix"/>
<feColorMatrix in="SourceAlpha" type="matrix" values="0 0 0 0 0 0 0 0 0 0 0 0 0 0 0 0 0 0 127 0" result="hardAlpha"/>
<feOffset dy="4"/>
<feGaussianBlur stdDeviation="2"/>
<feComposite in2="hardAlpha" operator="out"/>
<feColorMatrix type="matrix" values="0 0 0 0 0 0 0 0 0 0 0 0 0 0 0 0 0 0 0.25 0"/>
<feBlend mode="normal" in2="BackgroundImageFix" result="effect1_dropShadow_151_74"/>
<feBlend mode="normal" in="SourceGraphic" in2="effect1_dropShadow_151_74" result="shape"/>
</filter>
<clipPath id="clip0_151_74">
<rect width="130" height="130" fill="white"/>
</clipPath>
</defs>
</svg>
