<svg width="90" height="99" viewBox="0 0 90 99" fill="none" xmlns="http://www.w3.org/2000/svg">
<g clip-path="url(#clip0_131_101)">
<path d="M34.1733 90.5852V94.4392C34.1733 96.9571 36.9981 98.994 40.4807 98.994H48.7671C52.2497 98.994 55.0745 96.9571 55.0745 94.4392V90.5852V82.8058H34.1733V90.5852Z" fill="#EFEFEF"/>
<path d="M44.6093 15.8259C30.6732 15.8259 19.374 27.2515 19.374 41.3435C19.374 47.4066 22.4807 52.3177 24.9649 57.3536C27.7075 62.9119 33.3923 73.6962 34.1088 79.3555H40.052C39.8993 75.2877 38.9244 56.3024 33.8621 44.1405C33.6096 43.5348 33.8915 42.84 34.4846 42.5906C35.0836 42.3352 35.7708 42.6202 36.0174 43.22C41.3381 55.9996 42.2602 75.3114 42.3952 79.3555H47.6161C47.7512 75.3114 48.6732 55.9996 53.9939 43.22C54.2465 42.6143 54.9336 42.3352 55.5267 42.5906C56.1257 42.8459 56.4018 43.5407 56.1492 44.1405C51.081 56.3084 50.112 75.2877 49.9593 79.3555H55.2272C57.2298 71.6474 61.0765 62.3715 64.2478 57.3536C67.2429 52.6147 69.8386 47.4126 69.8386 41.3435C69.8386 27.2456 58.5453 15.8259 44.6093 15.8259Z" fill="#EFEFEF"/>
<path d="M26.2043 16.1941C26.4216 16.5623 26.8092 16.7701 27.2085 16.7701C27.4141 16.7701 27.6196 16.7167 27.8134 16.5979C28.3655 16.2594 28.5475 15.5349 28.2128 14.9708L23.4206 6.9123C23.0859 6.35409 22.3694 6.17 21.8115 6.50849C21.2594 6.84698 21.0774 7.57147 21.4121 8.13563L26.2043 16.1941Z" fill="#EFEFEF"/>
<path d="M63.7956 74.8067C63.4609 74.2485 62.7385 74.0644 62.1865 74.4029C61.6344 74.7414 61.4524 75.4659 61.7871 76.03L66.5793 84.0885C66.8025 84.4567 67.1901 84.6645 67.5835 84.6645C67.7891 84.6645 68.0005 84.6111 68.1884 84.4923C68.7405 84.1538 68.9225 83.4294 68.5878 82.8652L63.7956 74.8067Z" fill="#EFEFEF"/>
<path d="M15.9032 26.6696L7.90454 21.8713C7.34663 21.5388 6.63015 21.7229 6.30128 22.287C5.97241 22.8512 6.15446 23.5757 6.71237 23.9082L14.7111 28.7065C14.899 28.8193 15.1045 28.8728 15.3101 28.8728C15.7094 28.8728 16.1029 28.6649 16.3202 28.2908C16.6432 27.7326 16.4611 27.0022 15.9032 26.6696Z" fill="#EFEFEF"/>
<path d="M69.8857 8.0882C69.3337 7.74971 68.6113 7.9338 68.2766 8.49202L63.4844 16.5505C63.1496 17.1087 63.3317 17.8391 63.8837 18.1776C64.0717 18.2905 64.2831 18.3499 64.4886 18.3499C64.888 18.3499 65.2756 18.1479 65.4929 17.7738L70.285 9.71534C70.6198 9.15118 70.4377 8.42669 69.8857 8.0882Z" fill="#EFEFEF"/>
<path d="M76.3871 30.4524C76.5926 30.4524 76.7982 30.3989 76.9861 30.2861L84.9848 25.4878C85.5427 25.1553 85.7247 24.4248 85.3959 23.8666C85.067 23.3025 84.3505 23.1184 83.7926 23.4509L75.7939 28.2492C75.236 28.5818 75.0539 29.3122 75.3828 29.8704C75.5942 30.2445 75.9877 30.4524 76.3871 30.4524Z" fill="#EFEFEF"/>
<path d="M83.2875 67.0927L75.2888 62.2944C74.7309 61.9619 74.0144 62.146 73.6856 62.7101C73.3567 63.2743 73.5387 63.9988 74.0966 64.3313L82.0953 69.1296C82.2833 69.2424 82.4888 69.2959 82.6944 69.2959C83.0937 69.2959 83.4872 69.088 83.7045 68.7139C84.0334 68.1557 83.8454 67.4253 83.2875 67.0927Z" fill="#EFEFEF"/>
<path d="M25.8579 73.0787C25.3058 72.7402 24.5835 72.9243 24.2487 73.4825L19.4566 81.541C19.1218 82.0992 19.3039 82.8296 19.8559 83.1681C20.0438 83.2809 20.2553 83.3403 20.4608 83.3403C20.8601 83.3403 21.2478 83.1384 21.465 82.7643L26.2572 74.7058C26.592 74.1417 26.4158 73.4112 25.8579 73.0787Z" fill="#EFEFEF"/>
<path d="M12.7614 60.9702L4.75681 65.7685C4.19889 66.101 4.01684 66.8314 4.34571 67.3897C4.56301 67.7638 4.95648 67.9716 5.35583 67.9716C5.56137 67.9716 5.76692 67.9182 5.95485 67.8053L13.9535 63.0071C14.5115 62.6745 14.6935 61.9441 14.3646 61.3859C14.0358 60.8217 13.3193 60.6317 12.7614 60.9702Z" fill="#EFEFEF"/>
<path d="M11.6457 45.5004C11.6457 44.8472 11.123 44.3127 10.4711 44.3127H1.17455C0.528548 44.3127 0 44.8413 0 45.5004C0 46.1537 0.522675 46.6881 1.17455 46.6881H10.477C11.123 46.6881 11.6457 46.1537 11.6457 45.5004Z" fill="#EFEFEF"/>
<path d="M88.8256 44.3187H79.5232C78.8772 44.3187 78.3486 44.8472 78.3486 45.5064C78.3486 46.1596 78.8713 46.6941 79.5232 46.6941H88.8256C89.4716 46.6941 90.0002 46.1656 90.0002 45.5064C90.0002 44.8472 89.4716 44.3187 88.8256 44.3187Z" fill="#EFEFEF"/>
<path d="M44.9973 11.776C45.6433 11.776 46.1719 11.2474 46.1719 10.5883V1.18769C46.1719 0.534461 45.6492 0 44.9973 0C44.3513 0 43.8228 0.528523 43.8228 1.18769V10.5942C43.8286 11.2474 44.3513 11.776 44.9973 11.776Z" fill="#EFEFEF"/>
</g>
<defs>
<clipPath id="clip0_131_101">
<rect width="90" height="99" fill="white"/>
</clipPath>
</defs>
</svg>
