<svg width="106" height="102" viewBox="0 0 106 102" fill="none" xmlns="http://www.w3.org/2000/svg">
<g clip-path="url(#clip0_131_116)">
<path d="M30.0001 88C27.8001 86.6 25.7001 84.9 23.8001 83C22.0001 81.3 20.5001 79.4 19.1001 77.5" fill="white"/>
<path d="M30.0001 88C27.8001 86.6 25.7001 84.9 23.8001 83C22.0001 81.3 20.5001 79.4 19.1001 77.5" stroke="#EFEFEF" stroke-width="2" stroke-miterlimit="10" stroke-linecap="round"/>
<path d="M23.7001 77.6L19.8001 78.5L17.7001 81.9L15.6001 72.6L23.7001 77.6Z" fill="white"/>
<path d="M86.5999 75.7C85.0999 78.1 83.2999 80.3 81.2999 82.4C79.5999 84.1 77.7999 85.7 75.8999 87" fill="white"/>
<path d="M86.5999 75.7C85.0999 78.1 83.2999 80.3 81.2999 82.4C79.5999 84.1 77.7999 85.7 75.8999 87" stroke="#EFEFEF" stroke-width="2" stroke-miterlimit="10" stroke-linecap="round"/>
<path d="M76.1001 82.3999L76.9001 86.2999L80.4001 88.3999L71.1001 90.4999L76.1001 82.3999Z" fill="white"/>
<path d="M74.7998 20.1C76.8998 21.5 78.8998 23.1 80.6998 24.9C82.2998 26.5 83.7998 28.2 85.0998 30" fill="white"/>
<path d="M74.7998 20.1C76.8998 21.5 78.8998 23.1 80.6998 24.9C82.2998 26.5 83.7998 28.2 85.0998 30" stroke="#EFEFEF" stroke-width="2" stroke-miterlimit="10" stroke-linecap="round"/>
<path d="M80.5 30L84.5 29.1L86.5 25.6L88.7 34.9L80.5 30Z" fill="white"/>
<path d="M17.3999 33C18.9999 30.3 20.8999 27.8 23.1999 25.5C25.4999 23.1 27.9999 21.1 30.6999 19.4" fill="white"/>
<path d="M17.3999 33C18.9999 30.3 20.8999 27.8 23.1999 25.5C25.4999 23.1 27.9999 21.1 30.6999 19.4" stroke="#EFEFEF" stroke-width="2" stroke-miterlimit="10" stroke-linecap="round"/>
<path d="M30.3999 24.1L29.6999 20.1L26.3999 17.8L35.8999 16.3L30.3999 24.1Z" fill="white"/>
<path d="M53.5 28C60.9558 28 67 21.732 67 14C67 6.26801 60.9558 0 53.5 0C46.0442 0 40 6.26801 40 14C40 21.732 46.0442 28 53.5 28Z" fill="#EFEFEF"/>
<path d="M103 43H81V66H103V43Z" fill="#EFEFEF"/>
<path d="M19.5 40H6.5L0 51.5L6.5 63H19.5L26 51.5L19.5 40Z" fill="#EFEFEF"/>
<path d="M67 103L53 79L39 103H67Z" fill="#EFEFEF"/>
</g>
<defs>
<clipPath id="clip0_131_116">
<rect width="105.3" height="101.4" fill="white"/>
</clipPath>
</defs>
</svg>
