<svg width="130" height="130" viewBox="0 0 130 130" fill="none" xmlns="http://www.w3.org/2000/svg">
<path d="M92.1238 51.182C91.6863 50.7445 91.0848 50.5258 90.538 50.5258C89.9365 50.5258 89.3898 50.7445 88.9523 51.182C88.5149 51.6194 88.2961 52.1662 88.2961 52.7677C88.2961 53.3692 88.5149 53.916 88.9523 54.3534C89.8272 55.2283 91.2489 55.2283 92.1238 54.3534C92.5612 53.916 92.7799 53.3692 92.7799 52.7677C92.7799 52.1662 92.5065 51.6194 92.1238 51.182Z" fill="white"/>
<path d="M101.693 44.7844C102.568 43.9095 102.568 42.4878 101.693 41.613C101.255 41.1755 100.654 40.9568 100.107 40.9568C99.5056 40.9568 98.9588 41.1755 98.5214 41.613C97.6465 42.4878 97.6465 43.9095 98.5214 44.7844C99.3963 45.6593 100.818 45.6593 101.693 44.7844Z" fill="white"/>
<path d="M101.583 60.6417C101.146 60.2043 100.599 59.9855 99.9978 59.9855C99.3963 59.9855 98.8495 60.2043 98.412 60.6417C97.5371 61.5166 97.5371 62.9383 98.412 63.8132C98.8495 64.2506 99.3963 64.4693 99.9978 64.4693C100.599 64.4693 101.146 64.2506 101.583 63.8132C102.458 62.9383 102.458 61.5166 101.583 60.6417Z" fill="white"/>
<path d="M122.964 42.5972C121.706 38.1681 119.191 34.1217 115.527 31.0596C107.708 24.4433 97.4825 24.1699 85.7262 28.0522C83.4843 28.763 81.133 29.1458 78.7271 29.1458H64.6742H50.6213C48.2701 29.1458 45.8641 28.8177 43.6222 28.0522C31.866 24.1699 21.6407 24.498 13.8214 31.0596C10.1578 34.1217 7.64254 38.1681 6.38489 42.5972C0.370042 64.1413 0.260688 82.6779 7.58787 97.4417C10.9234 104.113 16.0633 105.37 22.5703 102.636C24.4841 101.816 26.2339 100.777 27.8743 99.5195C32.5768 95.9106 36.4044 91.5362 39.3572 86.2868C39.8493 85.412 40.3414 84.4824 40.7789 83.5528C44.0597 76.6084 49.0356 72.6167 56.5815 73.3823L64.6742 73.5463L72.7669 73.3823C80.3128 72.6167 85.2887 76.6084 88.5696 83.5528C89.007 84.4824 89.4444 85.412 89.9912 86.2868C92.944 91.4815 96.8263 95.8559 101.474 99.5195C103.115 100.777 104.864 101.816 106.778 102.636C113.285 105.37 118.425 104.167 121.761 97.4417C129.088 82.6779 129.033 64.1413 122.964 42.5972ZM29.8975 67.9689C21.4767 67.9689 14.6416 61.1339 14.6416 52.7131C14.6416 44.2923 21.4767 37.4572 29.8975 37.4572C38.3183 37.4572 45.1533 44.2923 45.1533 52.7131C45.0986 61.1339 38.2636 67.9689 29.8975 67.9689ZM61.5574 67.9142H54.449V64.7974H61.5574V67.9142ZM74.9541 67.9142H67.8457V64.7974H74.9541V67.9142ZM95.8421 38.9336C98.1933 36.5823 102.021 36.5823 104.318 38.9336C106.669 41.2849 106.669 45.1125 104.318 47.4091C103.169 48.5574 101.584 49.1588 100.052 49.1588C98.5214 49.1588 96.9904 48.5574 95.7874 47.4091C93.4908 45.1125 93.4908 41.2849 95.8421 38.9336ZM86.273 57.0328C85.1247 55.8845 84.5232 54.4082 84.5232 52.7677C84.5232 51.182 85.1247 49.651 86.273 48.5027C87.4213 47.3544 88.8976 46.7529 90.5381 46.7529C92.1238 46.7529 93.6549 47.3544 94.8032 48.5027C95.9514 49.651 96.5529 51.1273 96.5529 52.7677C96.5529 54.3535 95.9514 55.8845 94.8032 57.0328C93.6549 58.1811 92.1785 58.7826 90.5381 58.7826C88.8976 58.7826 87.4213 58.1811 86.273 57.0328ZM104.208 66.4925C103.06 67.6408 101.584 68.2423 99.9431 68.2423C98.3574 68.2423 96.8263 67.6408 95.678 66.4925C94.5297 65.3442 93.9282 63.8679 93.9282 62.2275C93.9282 60.6417 94.5297 59.1107 95.678 57.9624C96.8263 56.8141 98.3027 56.2126 99.9431 56.2126C101.529 56.2126 103.06 56.8141 104.208 57.9624C105.356 59.1107 105.958 60.587 105.958 62.2275C105.958 63.8132 105.356 65.3442 104.208 66.4925ZM113.777 56.9235C112.629 58.0717 111.043 58.6732 109.512 58.6732C107.981 58.6732 106.45 58.0717 105.247 56.9235C102.896 54.5722 102.896 50.7446 105.247 48.448C107.598 46.0967 111.426 46.0967 113.723 48.448C116.129 50.7446 116.128 54.5722 113.777 56.9235Z" fill="white"/>
<path d="M29.8975 41.2302C23.5545 41.2302 18.4146 46.3701 18.4146 52.7131C18.4146 59.056 23.5545 64.1959 29.8975 64.1959C36.2404 64.1959 41.3804 59.056 41.3804 52.7131C41.3804 46.3701 36.1857 41.2302 29.8975 41.2302ZM39.5759 52.8224C39.5759 53.8613 38.7557 54.6815 37.7168 54.6815H31.7566V60.6417C31.7566 61.6806 30.9364 62.5008 29.8975 62.5008C28.8585 62.5008 28.0383 61.6806 28.0383 60.6417V54.6815H22.0782C21.0392 54.6815 20.219 53.8613 20.219 52.8224C20.219 51.7835 21.0392 50.9633 22.0782 50.9633H28.0383V44.9484C28.0383 43.9095 28.8585 43.0893 29.8975 43.0893C30.9364 43.0893 31.7566 43.9095 31.7566 44.9484V50.9086H37.7168C38.7557 50.9086 39.5759 51.7835 39.5759 52.8224Z" fill="white"/>
<path d="M109.567 50.4165C108.965 50.4165 108.419 50.6352 107.981 51.0727C107.106 51.9476 107.106 53.3692 107.981 54.2441C108.856 55.119 110.278 55.119 111.153 54.2441C112.027 53.3692 112.027 51.9476 111.153 51.0727C110.715 50.6352 110.114 50.4165 109.567 50.4165Z" fill="white"/>
</svg>
