<svg width="109" height="91" viewBox="0 0 109 91" fill="none" xmlns="http://www.w3.org/2000/svg">
<g clip-path="url(#clip0_131_88)">
<path d="M94.0558 60.9061C93.7749 60.6223 93.6378 60.2197 93.6835 59.8238C94.095 56.2997 93.4418 52.7887 91.8089 49.6804C91.613 49.3042 91.3974 48.9281 91.1688 48.5651C91.11 48.4793 91.0708 48.3803 91.0382 48.2813L89.9278 44.9354L85.2316 33.0101C84.9638 32.337 84.4608 31.809 83.8011 31.5253C83.1414 31.2415 82.4164 31.2283 81.7502 31.4989C81.084 31.7694 80.5614 32.2776 80.2806 32.9442C79.9997 33.6107 79.9867 34.3432 80.2544 35.0164C80.2675 35.0428 80.274 35.0692 80.2871 35.1022L82.854 43.1601L82.8606 43.1733C82.8867 43.2459 82.8998 43.3251 82.9128 43.3977C82.9128 43.4109 82.9128 43.4241 82.9128 43.4439C82.9194 43.5099 82.9259 43.5759 82.9194 43.6353C82.9194 43.6617 82.9128 43.6881 82.9128 43.7145C82.9063 43.7673 82.8998 43.8135 82.8867 43.8663C82.8802 43.8993 82.8736 43.9257 82.8606 43.9587C82.8475 44.0049 82.8279 44.0511 82.8083 44.0972C82.7953 44.1236 82.7822 44.1566 82.7691 44.183C82.743 44.2358 82.7103 44.282 82.6842 44.3282C82.6712 44.3414 82.6646 44.3612 82.6581 44.3744C82.5928 44.4602 82.1486 45.0674 81.6261 46.0375C80.2414 48.6311 78.3211 53.8513 81.6588 58.8866C81.9461 59.3222 82.2727 59.7578 82.645 60.1933C83.1153 60.7411 83.0631 61.5726 82.5209 62.0544C82.2727 62.2722 81.9723 62.3778 81.6653 62.3778C81.2995 62.3778 80.9403 62.226 80.679 61.9224C74.3825 54.6234 78.2884 46.4995 79.9409 43.7475L63.1612 26.8067C62.2728 25.9091 60.9077 25.7771 59.8757 26.4041C60.9012 26.9716 61.7046 27.8626 62.1749 28.9647C62.7366 30.278 62.7562 31.7299 62.2271 33.0563C62.1814 33.1685 62.1292 33.2741 62.0769 33.3863L71.9527 43.3581C72.4622 43.8729 72.4622 44.7044 71.9527 45.2192C71.4433 45.7339 70.6203 45.7339 70.1108 45.2192L60.4048 35.4124C60.0978 35.6367 59.7647 35.8281 59.4055 35.9865C58.1253 36.5475 56.7014 36.5739 55.4016 36.0591L52.5864 35.1418L66.2898 48.9874C67.2891 49.9972 67.8378 51.3369 67.8378 52.7689C67.8378 54.1944 67.2891 55.5407 66.2898 56.5504C65.6105 57.2368 64.781 57.7119 63.8731 57.9495C65.7934 60.0415 65.7477 63.3281 63.7359 65.3607C63.0501 66.0537 62.2075 66.5288 61.2931 66.7598L64.5393 70.0397C68.0272 73.5639 72.8541 75.3985 77.7855 75.0685C78.1643 75.0421 78.5301 75.1807 78.7914 75.4513L94.1734 90.993L109.007 76.0056L94.0558 60.9061Z" fill="#EFEFEF"/>
<path d="M61.8938 59.6655L58.8435 56.5835C58.8305 56.5703 58.8239 56.5637 58.8109 56.5505L46.2244 43.8399C45.7149 43.3252 45.7149 42.4937 46.2244 41.9789C46.7339 41.4641 47.5569 41.4641 48.0663 41.9789L60.6724 54.7159C61.1753 55.2108 61.8416 55.488 62.547 55.488C63.2655 55.488 63.9382 55.2042 64.4477 54.6961C64.9572 54.1813 65.2315 53.5016 65.2315 52.7822C65.2315 52.0563 64.9506 51.3765 64.4477 50.8684L46.9233 33.1488C46.4987 32.7199 46.4204 32.0467 46.7339 31.5319C47.0474 31.0106 47.6744 30.7796 48.2427 30.9644L56.2374 33.5712C56.2635 33.5778 56.2897 33.591 56.3223 33.6042C56.9886 33.8748 57.7136 33.8616 58.3733 33.5778C59.033 33.294 59.5424 32.766 59.8037 32.0929C60.0715 31.4198 60.0584 30.6806 59.7776 30.0207C59.4967 29.3541 58.9742 28.8394 58.3079 28.5754L46.5053 23.8106L43.1937 22.6887C43.0958 22.6557 42.9978 22.6095 42.9129 22.5567C42.5536 22.3257 42.1813 22.1079 41.809 21.9099C38.7326 20.2601 35.2578 19.6001 31.7699 20.0159C31.3715 20.0621 30.9796 19.9235 30.6987 19.6397L14.8334 3.60962L0 18.597L16.2964 35.0627C16.5642 35.3332 16.7014 35.7028 16.6753 36.079C16.3552 41.0616 18.171 45.9386 21.6524 49.4627L38.8959 66.8853C39.4054 67.4 40.0781 67.6772 40.7901 67.6772C41.5086 67.6772 42.1813 67.3934 42.6843 66.8853C43.1937 66.3705 43.4681 65.6908 43.4681 64.9714C43.4681 64.2455 43.1872 63.5657 42.6843 63.0576L34.794 55.0722C34.2846 54.5575 34.2846 53.7259 34.794 53.2112C35.3035 52.6964 36.1265 52.6964 36.636 53.2112L50.1303 66.8457C51.1754 67.9016 52.8802 67.9016 53.9252 66.8457C54.4347 66.3309 54.709 65.6512 54.709 64.9318C54.709 64.2059 54.4281 63.5261 53.9252 63.018L40.4308 49.3769C39.9214 48.8621 39.9214 48.0306 40.4308 47.5158C40.9403 47.0011 41.7633 47.0011 42.2728 47.5158L58.0989 63.5063C58.6084 64.0211 59.2812 64.2983 59.9931 64.2983C60.7116 64.2983 61.3843 64.0145 61.8873 63.5063C62.9389 62.4438 62.9389 60.728 61.8938 59.6655Z" fill="#EFEFEF"/>
<path d="M25.4601 70.5678C24.8984 70.1124 24.0754 70.2048 23.6247 70.7724L16.9168 79.2065C16.4661 79.774 16.5575 80.599 17.1192 81.0609C17.3609 81.2589 17.6483 81.3513 17.9357 81.3513C18.3145 81.3513 18.6934 81.1863 18.9546 80.8564L25.6626 72.4222C26.1068 71.8547 26.0219 71.0232 25.4601 70.5678Z" fill="#EFEFEF"/>
<path d="M11.4367 56.1677L4.12122 57.3886C3.40927 57.5074 2.93246 58.1871 3.05003 58.8999C3.15454 59.5466 3.70973 60.002 4.33677 60.002C4.40861 60.002 4.48046 59.9954 4.55231 59.9822L11.8677 58.7613C12.5797 58.6425 13.0565 57.9628 12.9389 57.25C12.8214 56.5373 12.1486 56.0489 11.4367 56.1677Z" fill="#EFEFEF"/>
<path d="M39.7648 79.0348C39.0463 79.0744 38.4911 79.6948 38.5303 80.4207L38.9287 87.9045C38.9679 88.604 39.5427 89.1518 40.2285 89.1518C40.2546 89.1518 40.2742 89.1518 40.3003 89.1518C41.0188 89.1122 41.5675 88.4918 41.5348 87.7659L41.1364 80.2821C41.0972 79.5562 40.4832 78.9952 39.7648 79.0348Z" fill="#EFEFEF"/>
<path d="M59.4508 15.1125C59.6402 15.2115 59.8427 15.2577 60.0386 15.2577C60.5154 15.2577 60.9727 14.9937 61.2013 14.5318L66.0347 4.87674C66.3613 4.23 66.1 3.43806 65.4599 3.10809C64.8198 2.77811 64.036 3.04209 63.7094 3.68884L58.876 13.3439C58.5494 13.9906 58.8042 14.7825 59.4508 15.1125Z" fill="#EFEFEF"/>
<path d="M75.643 26.3514C75.7998 26.3514 75.9631 26.325 76.1198 26.259L83.0303 23.5334C83.7031 23.2694 84.0296 22.5039 83.7684 21.8308C83.5071 21.151 82.7494 20.821 82.0832 21.085L75.1727 23.8106C74.5 24.0746 74.1734 24.8401 74.4347 25.5133C74.6306 26.0346 75.1205 26.3514 75.643 26.3514Z" fill="#EFEFEF"/>
<path d="M42.116 8.89576C42.2728 9.48311 42.8019 9.87248 43.3766 9.87248C43.4877 9.87248 43.6053 9.85928 43.7163 9.82628C44.4086 9.6349 44.8267 8.91556 44.6373 8.20942L42.7104 0.976405C42.521 0.276862 41.8091 -0.145504 41.1102 0.0458804C40.4178 0.237265 39.9998 0.956606 40.1892 1.66275L42.116 8.89576Z" fill="#EFEFEF"/>
</g>
<defs>
<clipPath id="clip0_131_88">
<rect width="109" height="91" fill="white"/>
</clipPath>
</defs>
</svg>
