<svg width="144" height="144" viewBox="0 0 144 144" fill="none" xmlns="http://www.w3.org/2000/svg">
<g clip-path="url(#clip0_123_9)">
<path d="M74.0748 28.952C74.0748 28.952 84.6713 31.0713 88.0017 39.2458C89.2127 42.2734 90.121 76.485 88.0017 84.3567C85.8824 92.2284 81.6437 101.917 74.3776 104.641C67.1114 107.366 22.606 116.752 22.606 116.752L44.7073 122.201C44.7073 122.201 74.6803 122.201 85.2768 115.844C94.6623 110.394 107.075 99.4946 107.984 81.6319C108.892 64.6774 108.589 46.512 104.653 38.943C101.323 32.2824 91.9375 25.0162 74.0748 28.952Z" fill="#7A7A7A"/>
<path d="M44.7065 122.201C77.4044 115.541 80.7347 114.33 89.212 107.972C97.9919 101.614 101.322 91.3202 102.231 81.6319C103.139 71.3381 104.653 51.3561 100.717 42.8789C94.3588 29.5575 85.8816 27.1355 76.4961 28.6493C67.4134 30.1631 45.0093 37.4292 45.0093 37.4292V15.3279C45.0093 15.3279 63.7803 8.66725 75.8906 6.24518C88.3037 3.82312 108.286 10.181 116.46 30.1631C121.91 42.8789 121.607 67.0995 120.699 82.5402C119.79 97.3753 114.946 112.816 103.744 122.504C92.5423 131.89 88.0009 133.706 45.0093 144" fill="#FF7300"/>
<path d="M90.121 7.15339C90.121 7.15339 73.4693 -2.83762 56.2121 0.795472C48.0377 2.30926 22.0005 10.7865 22.0005 10.7865L45.0101 15.3279C45.0101 15.3279 72.8638 6.85063 78.0107 6.85063C88.0017 6.54787 90.121 7.15339 90.121 7.15339Z" fill="#8C8C8C"/>
</g>
<defs>
<clipPath id="clip0_123_9">
<rect width="144" height="144" fill="white"/>
</clipPath>
</defs>
</svg>
