<svg width="130" height="130" viewBox="0 0 130 130" fill="none" xmlns="http://www.w3.org/2000/svg">
<circle cx="65" cy="65" r="53" fill="white"/>
<path d="M93.8342 71.3355C92.8843 75.7665 90.9846 79.9384 88.2669 83.5619C85.5491 87.1855 82.0783 90.1739 78.0952 92.3199" stroke="#212121" stroke-width="3" stroke-linecap="round"/>
<path d="M105.309 65C105.309 74.1292 102.358 83.0139 96.8959 90.3287C91.4337 97.6436 83.7532 102.997 75 105.59" stroke="#212121" stroke-width="4" stroke-linecap="round"/>
<circle cx="65" cy="65" r="17" fill="#1E1E1E"/>
<path d="M86 51.5V44H91.0848C94.6535 44 98.181 44.7641 101.43 46.2408L102 46.5H124V49.5H102L100.639 49.9948C97.9008 50.9906 95.0094 51.5 92.0956 51.5H86Z" fill="white" stroke="#212121" stroke-width="2"/>
<circle cx="65" cy="65" r="62" stroke="white" stroke-width="4"/>
</svg>
