<svg width="125" height="126" viewBox="0 0 125 126" fill="none" xmlns="http://www.w3.org/2000/svg">
<path d="M105.74 36.9349C102.081 36.9349 98.4227 38.0628 96.1361 36.7359C90.9749 33.8167 85.8137 35.8734 80.7178 35.0773C78.6925 34.8119 77.7125 35.5417 77.8431 37.7974C78.0391 40.3185 77.9085 42.8396 77.9085 45.7588C83.2657 45.7588 88.5576 46.8203 93.1962 45.4934C98.0307 44.0338 102.604 44.8963 107.243 44.3655C109.137 44.1002 109.987 44.9626 110.575 46.6876C118.61 71.7659 108.68 99.5644 83.6577 110.71C54.7156 123.648 23.1603 109.516 13.4258 78.9975C6.69658 58.0989 13.1645 40.1858 28.1255 25.3909C50.1424 3.56352 88.035 8.34034 104.564 34.7456C104.891 35.2763 105.152 35.8071 105.74 36.9349ZM62.2941 47.0857C52.821 47.0193 45.6998 54.0519 45.6998 63.4065C45.6998 72.5621 53.3436 80.3244 62.1635 80.2581C71.2446 80.1917 78.4311 72.8938 78.4311 63.7382C78.4311 54.5163 71.31 47.152 62.2941 47.0857ZM60.5955 103.678C61.2488 101.223 60.5955 100.161 57.7862 100.161C44.0665 100.029 34.3974 93.4607 28.7788 80.7888C27.6682 78.2014 27.1455 75.3485 26.2962 72.363C25.1202 72.6284 24.0096 72.8938 22.9643 73.1592C25.0549 93.7924 44.8505 106.531 60.5955 103.678ZM33.2867 70.5054C33.3521 84.0397 48.5744 96.3135 61.3795 93.2616C61.1835 91.9347 60.9222 90.6078 60.7262 89.3473C46.8105 88.2858 41.8452 84.2387 37.272 70.24C36.0307 70.3063 34.724 70.3727 33.2867 70.5054Z" fill="#212121"/>
<path d="M120.571 42.3752C113.58 42.3752 106.786 42.2425 100.056 42.4415C97.1164 42.5078 94.3724 42.1098 91.2365 43.9011C88.4272 45.4934 84.05 44.2328 80.0647 44.2328C80.0647 41.9107 80.0647 39.7214 80.0647 36.9349C83.658 36.9349 88.1006 35.608 91.1059 37.2003C99.2724 41.579 107.57 37.333 115.867 39.5223C108.876 19.0218 82.6127 -2.07583 50.7306 4.29327C18.718 10.7287 -2.25362 42.7069 4.47558 75.0831C11.2701 107.725 41.6495 127.363 72.2902 121.989C104.564 116.35 129.129 83.5089 118.676 45.4934C120.963 44.2992 121.943 45.2943 122.531 47.55C130.828 79.3955 111.685 113.696 80.5221 123.249C44.0668 134.395 6.23955 110.578 0.620993 71.5005C-4.08291 38.7262 18.4567 7.0134 50.6 1.04238C80.2608 -4.46424 109.987 12.321 120.048 40.1858C120.244 40.7165 120.309 41.38 120.571 42.3752Z" fill="#212121"/>
<path d="M47.5 81L39 66L18.5 70.5L33.5 100.5L61.5 108.5L67 88.5L47.5 81Z" fill="#212121"/>
<path d="M92.6151 69.2856C91.6727 73.6817 89.788 77.8208 87.0916 81.4158C84.3953 85.0108 80.9518 87.9756 77.0001 90.1048" stroke="white" stroke-width="3" stroke-linecap="round"/>
<path d="M104 63C104 72.0573 101.072 80.872 95.6527 88.1293C90.2335 95.3866 82.6135 100.698 73.9292 103.27" stroke="white" stroke-width="4" stroke-linecap="round"/>
</svg>
