<svg width="130" height="130" viewBox="0 0 130 130" fill="none" xmlns="http://www.w3.org/2000/svg">
<path d="M108.591 40.2281C104.904 40.2281 101.216 41.3649 98.9112 40.0275C93.7091 37.0851 88.5069 39.1581 83.3705 38.3557C81.3292 38.0882 80.3414 38.8238 80.4731 41.0974C80.6706 43.6385 80.539 46.1796 80.539 49.122C85.9387 49.122 91.2726 50.1919 95.948 48.8545C100.821 47.3833 105.43 48.2526 110.106 47.7177C112.016 47.4502 112.872 48.3195 113.464 50.0582C121.564 75.3355 111.555 103.355 86.3338 114.589C57.162 127.629 25.3562 113.385 15.5445 82.6245C8.76187 61.56 15.2811 43.5048 30.3608 28.5925C52.5525 6.59182 90.7458 11.4065 107.406 38.0213C107.735 38.5563 107.999 39.0913 108.591 40.2281ZM64.8007 50.4594C55.2523 50.3925 48.0747 57.4809 48.0747 66.9097C48.0747 76.138 55.7791 83.9619 64.669 83.895C73.8222 83.8282 81.0658 76.4723 81.0658 67.2441C81.0658 57.949 73.888 50.5263 64.8007 50.4594ZM63.0886 107.501C63.7471 105.026 63.0886 103.956 60.257 103.956C46.4284 103.823 36.6825 97.2024 31.0194 84.43C29.8999 81.822 29.3731 78.9466 28.517 75.9374C27.3317 76.2048 26.2123 76.4723 25.1587 76.7398C27.2659 97.5368 47.2186 110.376 63.0886 107.501ZM35.5631 74.065C35.6289 87.7067 50.9721 100.078 63.8788 97.0018C63.6812 95.6644 63.4178 94.327 63.2203 93.0564C49.1941 91.9865 44.1895 87.9073 39.5799 73.7975C38.3288 73.8644 37.0118 73.9312 35.5631 74.065Z" fill="white"/>
<path d="M123.54 45.7115C116.494 45.7115 109.645 45.5777 102.863 45.7783C99.8993 45.8452 97.1336 45.444 93.9727 47.2495C91.1412 48.8544 86.7292 47.5839 82.7123 47.5839C82.7123 45.2434 82.7123 43.0366 82.7123 40.228C86.3341 40.228 90.812 38.8906 93.8411 40.4955C102.072 44.909 110.435 40.6293 118.798 42.836C111.752 22.1728 85.2805 0.907696 53.1454 7.32734C20.8787 13.8139 -0.259361 46.0458 6.52324 78.679C13.3717 111.58 43.9922 131.374 74.8761 125.957C107.406 120.273 132.166 87.1717 121.63 48.8544C123.935 47.6507 124.923 48.6538 125.515 50.9274C133.878 83.0257 114.584 117.598 83.1733 127.228C46.4287 138.462 8.30121 114.455 2.63807 75.068C-2.10317 42.0335 20.6153 10.0691 53.0137 4.05065C82.9099 -1.49967 112.872 15.4188 123.013 43.5047C123.21 44.0397 123.276 44.7084 123.54 45.7115Z" fill="white"/>
<path d="M49.8891 84.6429L41.3217 69.5238L20.659 74.0595L35.778 104.298L64.0002 112.361L69.5439 92.2024L49.8891 84.6429Z" fill="white"/>
<path d="M95.3623 72.8355C94.4124 77.2665 92.5127 81.4384 89.795 85.0619C87.0772 88.6855 83.6064 91.6739 79.6233 93.8199" stroke="#212121" stroke-width="3" stroke-linecap="round"/>
<path d="M106.837 66.5C106.837 75.6292 103.886 84.5139 98.424 91.8287C92.9618 99.1436 85.2813 104.497 76.5281 107.09" stroke="#212121" stroke-width="4" stroke-linecap="round"/>
</svg>
